<svg width="200" height="200" fill="#ffffff" xmlns="http://www.w3.org/2000/svg" xmlns:xlink="http://www.w3.org/1999/xlink" version="1.1" x="0px" y="0px" viewBox="0 0 100 100" enable-background="new 0 0 100 100" xml:space="preserve"><path fill="#ffffff" d="M54.674,94.998h-9.349c-2.438,0-4.495-1.746-4.892-4.15l-1.57-9.52c-1.063-0.381-2.112-0.816-3.138-1.305  l-7.847,5.623c-1.925,1.379-4.719,1.146-6.392-0.52l-6.611-6.611c-1.726-1.729-1.944-4.418-0.521-6.398l5.623-7.84  c-0.489-1.029-0.925-2.078-1.305-3.143l-9.518-1.568C6.745,59.166,5,57.105,5,54.674v-9.345c0-2.443,1.747-4.502,4.154-4.896  l9.517-1.568c0.379-1.061,0.815-2.11,1.303-3.137l-5.624-7.844c-1.417-1.985-1.198-4.674,0.522-6.396l6.609-6.608  c1.672-1.674,4.473-1.906,6.398-0.524l7.843,5.623c1.027-0.489,2.078-0.924,3.14-1.303l1.569-9.523  c0.396-2.404,2.453-4.15,4.892-4.15h9.347c2.438,0,4.494,1.746,4.893,4.15l1.568,9.523c1.064,0.379,2.111,0.814,3.141,1.303  l7.844-5.623c1.928-1.382,4.729-1.15,6.4,0.526l6.605,6.604c1.723,1.721,1.943,4.41,0.523,6.394l-5.627,7.849  c0.492,1.031,0.928,2.08,1.305,3.137l9.521,1.57C93.25,40.827,95,42.883,95,45.325v9.345c0,2.445-1.752,4.502-4.158,4.893  l-9.518,1.572c-0.377,1.059-0.812,2.109-1.305,3.139l5.629,7.844c1.422,1.984,1.199,4.672-0.523,6.396l-6.609,6.605  c-0.936,0.938-2.184,1.455-3.512,1.455l0,0c-1.039,0-2.037-0.32-2.885-0.926l-7.848-5.627c-1.027,0.49-2.074,0.926-3.135,1.305  l-1.572,9.521C59.168,93.252,57.111,94.998,54.674,94.998z M35.514,75.025c0.37,0,0.742,0.086,1.082,0.268  c1.605,0.85,3.286,1.549,5,2.074c0.838,0.26,1.457,0.969,1.6,1.832l1.797,10.896c0.027,0.164,0.166,0.283,0.333,0.283h9.349  c0.164,0,0.307-0.117,0.332-0.281l1.801-10.898c0.141-0.863,0.762-1.572,1.598-1.832c1.703-0.523,3.387-1.223,5-2.076  c0.771-0.414,1.711-0.346,2.426,0.164l8.98,6.439c0.26,0.061,0.354,0.045,0.436-0.039l6.613-6.607  c0.115-0.117,0.129-0.305,0.035-0.441l-6.441-8.973c-0.512-0.715-0.576-1.654-0.164-2.428c0.857-1.621,1.557-3.303,2.076-5  c0.256-0.84,0.963-1.459,1.83-1.602l10.898-1.799c0.168-0.027,0.287-0.168,0.287-0.336v-9.345c0-0.168-0.121-0.307-0.285-0.332  l-10.898-1.797c-0.867-0.143-1.576-0.763-1.832-1.602c-0.52-1.694-1.217-3.377-2.076-4.998c-0.412-0.773-0.348-1.715,0.162-2.427  l6.439-8.981c0.096-0.133,0.082-0.323-0.033-0.437l-6.609-6.607c-0.084-0.083-0.174-0.099-0.238-0.099l-9.18,6.5  c-0.717,0.509-1.656,0.573-2.43,0.162c-1.607-0.853-3.287-1.549-4.994-2.071c-0.84-0.254-1.463-0.965-1.604-1.833l-1.797-10.9  c-0.025-0.163-0.168-0.282-0.334-0.282h-9.347c-0.167,0-0.306,0.119-0.333,0.284l-1.797,10.901  c-0.143,0.866-0.765,1.577-1.604,1.831c-1.708,0.524-3.388,1.218-4.994,2.071c-0.775,0.411-1.716,0.347-2.428-0.162l-8.981-6.438  c-0.263-0.07-0.355-0.049-0.437,0.036l-6.609,6.607c-0.118,0.117-0.132,0.304-0.034,0.444l6.436,8.975  c0.509,0.712,0.574,1.654,0.164,2.427c-0.852,1.605-1.548,3.287-2.074,5c-0.258,0.837-0.968,1.457-1.833,1.6L9.904,44.991  C9.738,45.018,9.62,45.16,9.62,45.329v9.345c0,0.166,0.122,0.311,0.29,0.338l10.891,1.793c0.865,0.143,1.576,0.762,1.833,1.602  c0.525,1.711,1.222,3.395,2.074,4.998c0.411,0.773,0.348,1.715-0.164,2.43l-6.438,8.979c-0.097,0.133-0.08,0.322,0.036,0.438  l6.609,6.609c0.085,0.084,0.187,0.096,0.24,0.096l9.178-6.498C34.568,75.17,35.04,75.025,35.514,75.025z M49.998,66.27  c-8.973,0-16.271-7.301-16.271-16.271c0-8.971,7.298-16.27,16.271-16.27c8.973,0,16.272,7.299,16.272,16.27  C66.27,58.969,58.971,66.27,49.998,66.27z M49.998,38.348c-6.425,0-11.652,5.227-11.652,11.65c0,6.423,5.228,11.652,11.652,11.652  c6.426,0,11.653-5.229,11.653-11.652C61.65,43.575,56.424,38.348,49.998,38.348z"/></svg>