<svg fill="#ffffff" xmlns="http://www.w3.org/2000/svg" xmlns:xlink="http://www.w3.org/1999/xlink" version="1.1" x="0px" y="0px" viewBox="0 0 48 48" enable-background="new 0 0 48 48" xml:space="preserve"><g><g><path fill="#fff" d="M24,10.1c-2.4,0-4-3.7-4-5.6c0-2.2,1.8-4,4-4c2.2,0,4,1.8,4,4C28,6.4,26.4,10.1,24,10.1z M24,2.5    c-1.1,0-2,0.9-2,2c0,1.4,1.2,3.6,2,3.6c0.8,0,2-2.2,2-3.6C26,3.4,25.1,2.5,24,2.5z"/><path fill="#ffffff" d="M24,24.7c-2.8,0-5.5-0.3-8.1-0.8l-0.8-0.2v-5.1c0-2.8,1.9-5.3,4.9-6.5l0.8-0.3l3.2,5.1l3.2-5.1l0.8,0.3    c3,1.2,4.9,3.8,4.9,6.5v5.1l-0.8,0.2C29.5,24.4,26.8,24.7,24,24.7z M17.1,22.1c4.3,0.8,9.4,0.8,13.8,0v-3.5c0-1.7-1.1-3.3-2.9-4.3    l-4,6.4l-4-6.4c-1.8,1-2.9,2.6-2.9,4.3V22.1z"/></g><g><path fill="#ffffff" d="M9.4,32.9c-2.4,0-4-3.7-4-5.6c0-2.2,1.8-4,4-4c2.2,0,4,1.8,4,4C13.3,29.2,11.8,32.9,9.4,32.9z M9.4,25.3    c-1.1,0-2,0.9-2,2c0,1.4,1.2,3.6,2,3.6c0.8,0,2-2.2,2-3.6C11.3,26.2,10.5,25.3,9.4,25.3z"/><path fill="#ffffff" d="M9.4,47.5c-2.8,0-5.5-0.3-8.1-0.8l-0.8-0.2v-5.1c0-2.8,1.9-5.3,4.9-6.5l0.8-0.3l3.2,5.1l3.2-5.1l0.8,0.3    c3,1.2,4.9,3.8,4.9,6.5v5.1l-0.8,0.2C14.9,47.2,12.2,47.5,9.4,47.5z M2.5,44.9c4.3,0.8,9.4,0.8,13.8,0v-3.5c0-1.7-1.1-3.3-2.9-4.3    l-4,6.4l-4-6.4c-1.8,1-2.9,2.6-2.9,4.3V44.9z"/></g><g><path fill="#ffffff" d="M38.6,32.9c-2.4,0-4-3.7-4-5.6c0-2.2,1.8-4,4-4c2.2,0,4,1.8,4,4C42.6,29.2,41,32.9,38.6,32.9z M38.6,25.3    c-1.1,0-2,0.9-2,2c0,1.4,1.2,3.6,2,3.6c0.8,0,2-2.2,2-3.6C40.6,26.2,39.7,25.3,38.6,25.3z"/><path fill="#ffffff" d="M38.6,47.5c-2.8,0-5.5-0.3-8.1-0.8l-0.8-0.2v-5.1c0-2.8,1.9-5.3,4.9-6.5l0.8-0.3l3.2,5.1l3.2-5.1l0.8,0.3    c3,1.2,4.9,3.8,4.9,6.5v5.1l-0.8,0.2C44.2,47.2,41.5,47.5,38.6,47.5z M31.7,44.9c4.3,0.8,9.4,0.8,13.8,0v-3.5    c0-1.7-1.1-3.3-2.9-4.3l-4,6.4l-4-6.4c-1.8,1-2.9,2.6-2.9,4.3V44.9z"/></g><g><rect x="20.4" y="31.1" transform="matrix(0.4999 0.8661 -0.8661 0.4999 40.2455 -1.5123)" fill="#ffffff" width="2" height="5.9"/><path fill="#ffffff" d="M24,32.6"/><path fill="#ffffff" d="M24,32.6"/><rect x="23.6" y="33.1" transform="matrix(0.866 0.5 -0.5 0.866 20.6077 -8.7164)" fill="#ffffff" width="5.9" height="2"/><path fill="#ffffff" d="M24,32.6"/><rect x="23" y="26.7" fill="#ffffff" width="2" height="5.9"/></g></g></svg>